<svg width="24" height="24" viewBox="0 0 24 24" fill="none" xmlns="http://www.w3.org/2000/svg">
<g clip-path="url(#clip0_34_3029)">
<g clip-path="url(#clip1_34_3029)">
<path d="M20.9991 9.46114C20.9991 8.32124 20.6331 7.25043 19.9344 6.31779C20.2006 5.41969 20.2671 4.27979 20.2006 2.96718C20.1673 2.41451 19.7348 2 19.2024 2C18.903 2 16.3743 2.03454 14.9104 3.38169C13.6461 3.1399 12.3152 3.1399 11.0176 3.38169C9.58692 2.03454 7.05826 2 6.72555 2C6.1932 2 5.76067 2.41451 5.7274 2.96718C5.62758 4.27979 5.7274 5.41969 5.99357 6.31779C5.29486 7.28497 4.92887 8.35579 4.92887 9.46114C4.92887 11.8791 6.72555 14.0553 9.45383 15.0915C9.35401 15.2988 9.28747 15.5406 9.22093 15.7824C6.32629 15.4715 4.96215 12.7427 4.8956 12.639C4.6627 12.1209 4.06381 11.9136 3.56473 12.19C3.06566 12.4318 2.86603 13.0535 3.1322 13.5717C3.19875 13.7444 5.02869 17.4404 9.05457 17.8549V20.9637C9.05457 21.5509 9.4871 22 10.0527 22H15.8753C16.4409 22 16.8734 21.5509 16.8734 20.9637V16.8532C16.8734 16.2314 16.7403 15.6442 16.5074 15.1261C19.2024 14.0553 20.9991 11.9136 20.9991 9.46114Z" fill="white"/>
</g>
</g>
<defs>
<clipPath id="clip0_34_3029">
<rect width="18" height="20" fill="white" transform="translate(3 2)"/>
</clipPath>
<clipPath id="clip1_34_3029">
<rect width="18" height="20" fill="white" transform="translate(3 2)"/>
</clipPath>
</defs>
</svg>
