<svg width="329" height="476" viewBox="0 0 329 476" fill="none" xmlns="http://www.w3.org/2000/svg">
<rect x="0.5" y="0.5" width="328" height="475" rx="8.5" fill="#EBF0EE" stroke="#D0D9D4"/>
<path d="M1 261C1 256.582 4.58172 253 9 253H320C324.418 253 328 256.582 328 261V467C328 471.418 324.418 475 320 475H9C4.58173 475 1 471.418 1 467V261Z" fill="white"/>
<path d="M61.4208 272.545V290H64.4549V277.983H64.6168L69.4407 289.949H71.7077L76.5316 278.009H76.6935V290H79.7276V272.545H75.8583L70.6765 285.193H70.4719L65.2901 272.545H61.4208ZM91.3782 284.494C91.3782 286.489 89.9549 287.477 88.5913 287.477C87.1083 287.477 86.1197 286.429 86.1197 284.767V276.909H83.0344V285.244C83.0344 288.389 84.8242 290.17 87.3981 290.17C89.3583 290.17 90.739 289.139 91.3356 287.673H91.4719V290H94.4634V276.909H91.3782V284.494ZM100.721 272.545H97.636V290H100.721V272.545ZM110.431 276.909H107.848V273.773H104.763V276.909H102.905V279.295H104.763V286.574C104.746 289.037 106.536 290.247 108.854 290.179C109.732 290.153 110.337 289.983 110.669 289.872L110.15 287.46C109.979 287.503 109.63 287.58 109.246 287.58C108.471 287.58 107.848 287.307 107.848 286.062V279.295H110.431V276.909ZM113.011 290H116.096V276.909H113.011V290ZM114.562 275.051C115.542 275.051 116.343 274.301 116.343 273.381C116.343 272.452 115.542 271.702 114.562 271.702C113.574 271.702 112.772 272.452 112.772 273.381C112.772 274.301 113.574 275.051 114.562 275.051ZM127.203 281.46H119.346V284H127.203V281.46ZM130.585 290H133.747V284.102H137.088C141.119 284.102 143.284 281.682 143.284 278.324C143.284 274.991 141.145 272.545 137.13 272.545H130.585V290ZM133.747 281.503V275.188H136.645C139.014 275.188 140.062 276.466 140.062 278.324C140.062 280.182 139.014 281.503 136.662 281.503H133.747ZM151.417 290.256C155.252 290.256 157.689 287.554 157.689 283.506C157.689 279.449 155.252 276.739 151.417 276.739C147.581 276.739 145.144 279.449 145.144 283.506C145.144 287.554 147.581 290.256 151.417 290.256ZM151.434 287.784C149.311 287.784 148.272 285.892 148.272 283.497C148.272 281.102 149.311 279.185 151.434 279.185C153.522 279.185 154.561 281.102 154.561 283.497C154.561 285.892 153.522 287.784 151.434 287.784ZM170.654 280.369C170.228 278.153 168.456 276.739 165.387 276.739C162.234 276.739 160.086 278.29 160.095 280.71C160.086 282.619 161.262 283.881 163.777 284.401L166.01 284.869C167.211 285.134 167.774 285.619 167.774 286.361C167.774 287.256 166.802 287.929 165.336 287.929C163.922 287.929 163.001 287.315 162.737 286.139L159.728 286.429C160.112 288.832 162.132 290.256 165.345 290.256C168.618 290.256 170.927 288.56 170.936 286.08C170.927 284.213 169.725 283.071 167.254 282.534L165.021 282.057C163.691 281.759 163.163 281.298 163.172 280.54C163.163 279.653 164.143 279.04 165.43 279.04C166.853 279.04 167.603 279.815 167.842 280.676L170.654 280.369ZM180.017 276.909H177.434V273.773H174.349V276.909H172.491V279.295H174.349V286.574C174.332 289.037 176.122 290.247 178.44 290.179C179.318 290.153 179.923 289.983 180.255 289.872L179.735 287.46C179.565 287.503 179.216 287.58 178.832 287.58C178.056 287.58 177.434 287.307 177.434 286.062V279.295H180.017V276.909ZM198.172 277.344H201.215C201.155 274.395 198.641 272.307 194.925 272.307C191.26 272.307 188.507 274.369 188.516 277.455C188.516 279.96 190.297 281.401 193.169 282.142L195.155 282.653C197.039 283.131 198.283 283.719 198.292 285.074C198.283 286.565 196.868 287.562 194.806 287.562C192.828 287.562 191.294 286.676 191.167 284.844H188.056C188.184 288.312 190.766 290.264 194.831 290.264C199.016 290.264 201.445 288.176 201.453 285.099C201.445 282.074 198.948 280.693 196.323 280.071L194.686 279.662C193.255 279.321 191.703 278.716 191.721 277.259C191.729 275.946 192.905 274.983 194.882 274.983C196.766 274.983 198.01 275.861 198.172 277.344ZM210.673 276.909H208.091V273.773H205.005V276.909H203.147V279.295H205.005V286.574C204.988 289.037 206.778 290.247 209.096 290.179C209.974 290.153 210.579 289.983 210.912 289.872L210.392 287.46C210.221 287.503 209.872 287.58 209.488 287.58C208.713 287.58 208.091 287.307 208.091 286.062V279.295H210.673V276.909ZM218.823 290.256C222.658 290.256 225.096 287.554 225.096 283.506C225.096 279.449 222.658 276.739 218.823 276.739C214.988 276.739 212.55 279.449 212.55 283.506C212.55 287.554 214.988 290.256 218.823 290.256ZM218.84 287.784C216.718 287.784 215.678 285.892 215.678 283.497C215.678 281.102 216.718 279.185 218.84 279.185C220.928 279.185 221.968 281.102 221.968 283.497C221.968 285.892 220.928 287.784 218.84 287.784ZM227.714 290H230.799V282.304C230.799 280.642 232.052 279.466 233.748 279.466C234.268 279.466 234.916 279.56 235.18 279.645V276.807C234.899 276.756 234.413 276.722 234.072 276.722C232.572 276.722 231.319 277.574 230.842 279.091H230.706V276.909H227.714V290ZM237.23 290H240.315V276.909H237.23V290ZM238.781 275.051C239.761 275.051 240.562 274.301 240.562 273.381C240.562 272.452 239.761 271.702 238.781 271.702C237.792 271.702 236.991 272.452 236.991 273.381C236.991 274.301 237.792 275.051 238.781 275.051ZM249.283 290.256C252.334 290.256 254.431 288.764 254.976 286.489L252.096 286.165C251.678 287.273 250.655 287.852 249.326 287.852C247.331 287.852 246.01 286.54 245.985 284.298H255.104V283.352C255.104 278.759 252.343 276.739 249.121 276.739C245.371 276.739 242.925 279.491 242.925 283.531C242.925 287.639 245.337 290.256 249.283 290.256ZM245.993 282.219C246.087 280.548 247.323 279.142 249.164 279.142C250.936 279.142 252.13 280.438 252.147 282.219H245.993ZM268.061 280.369C267.635 278.153 265.862 276.739 262.794 276.739C259.64 276.739 257.493 278.29 257.501 280.71C257.493 282.619 258.669 283.881 261.183 284.401L263.416 284.869C264.618 285.134 265.18 285.619 265.18 286.361C265.18 287.256 264.208 287.929 262.743 287.929C261.328 287.929 260.407 287.315 260.143 286.139L257.135 286.429C257.518 288.832 259.538 290.256 262.751 290.256C266.024 290.256 268.333 288.56 268.342 286.08C268.333 284.213 267.132 283.071 264.66 282.534L262.427 282.057C261.098 281.759 260.569 281.298 260.578 280.54C260.569 279.653 261.549 279.04 262.836 279.04C264.26 279.04 265.01 279.815 265.248 280.676L268.061 280.369ZM112.079 310.119H115.3C114.763 306.693 111.798 304.307 107.937 304.307C103.369 304.307 99.9425 307.665 99.9425 313.29C99.9425 318.812 103.215 322.239 108.031 322.239C112.352 322.239 115.445 319.46 115.445 314.96V312.864H108.363V315.335H112.386C112.335 317.824 110.673 319.401 108.048 319.401C105.124 319.401 103.121 317.21 103.121 313.256C103.121 309.327 105.158 307.145 107.979 307.145C110.085 307.145 111.516 308.27 112.079 310.119ZM122.134 322.264C124.188 322.264 125.415 321.301 125.977 320.202H126.08V322H129.045V313.239C129.045 309.778 126.224 308.739 123.727 308.739C120.974 308.739 118.861 309.966 118.179 312.352L121.06 312.761C121.366 311.866 122.236 311.099 123.744 311.099C125.176 311.099 125.96 311.832 125.96 313.119V313.17C125.96 314.057 125.031 314.099 122.722 314.347C120.182 314.619 117.753 315.378 117.753 318.327C117.753 320.901 119.636 322.264 122.134 322.264ZM122.935 319.997C121.648 319.997 120.727 319.409 120.727 318.276C120.727 317.091 121.759 316.597 123.139 316.401C123.949 316.29 125.568 316.085 125.969 315.761V317.304C125.969 318.761 124.793 319.997 122.935 319.997ZM132.148 322H135.233V308.909H132.148V322ZM133.699 307.051C134.679 307.051 135.48 306.301 135.48 305.381C135.48 304.452 134.679 303.702 133.699 303.702C132.71 303.702 131.909 304.452 131.909 305.381C131.909 306.301 132.71 307.051 133.699 307.051ZM141.491 314.33C141.491 312.438 142.633 311.347 144.261 311.347C145.854 311.347 146.809 312.395 146.809 314.142V322H149.894V313.665C149.903 310.528 148.113 308.739 145.411 308.739C143.451 308.739 142.104 309.676 141.508 311.134H141.354V308.909H138.406V322H141.491V314.33ZM158.178 320.969H160.854V316.409H165.414V313.733H160.854V309.173H158.178V313.733H153.619V316.409H158.178V320.969ZM181.009 310.119H184.23C183.693 306.693 180.727 304.307 176.866 304.307C172.298 304.307 168.872 307.665 168.872 313.29C168.872 318.812 172.145 322.239 176.96 322.239C181.281 322.239 184.375 319.46 184.375 314.96V312.864H177.293V315.335H181.315C181.264 317.824 179.602 319.401 176.977 319.401C174.054 319.401 172.051 317.21 172.051 313.256C172.051 309.327 174.088 307.145 176.909 307.145C179.014 307.145 180.446 308.27 181.009 310.119ZM190.381 304.545H187.296V322H190.381V304.545ZM199.264 322.256C203.099 322.256 205.537 319.554 205.537 315.506C205.537 311.449 203.099 308.739 199.264 308.739C195.429 308.739 192.991 311.449 192.991 315.506C192.991 319.554 195.429 322.256 199.264 322.256ZM199.281 319.784C197.159 319.784 196.119 317.892 196.119 315.497C196.119 313.102 197.159 311.185 199.281 311.185C201.369 311.185 202.409 313.102 202.409 315.497C202.409 317.892 201.369 319.784 199.281 319.784ZM208.156 322H211.241V314.304C211.241 312.642 212.494 311.466 214.19 311.466C214.71 311.466 215.357 311.56 215.621 311.645V308.807C215.34 308.756 214.854 308.722 214.513 308.722C213.013 308.722 211.761 309.574 211.283 311.091H211.147V308.909H208.156V322ZM219.987 326.884C222.391 326.884 223.78 325.639 224.521 323.585L229.78 308.926L226.482 308.909L223.456 318.795H223.32L220.303 308.909H217.03L221.777 322.273L221.513 322.98C220.925 324.429 220.038 324.54 218.692 324.156L217.976 326.551C218.393 326.73 219.143 326.884 219.987 326.884Z" fill="#3A4A42"/>
<rect x="12" y="342" width="103" height="32" rx="4" fill="#EBF0EE"/>
<path d="M24.8608 362H26.4418V358.804H28.0526L29.7656 362H31.5298L29.642 358.54C30.669 358.126 31.2102 357.249 31.2102 356.064C31.2102 354.398 30.1364 353.273 28.1335 353.273H24.8608V362ZM26.4418 357.491V354.594H27.8906C29.071 354.594 29.5994 355.135 29.5994 356.064C29.5994 356.993 29.071 357.491 27.8991 357.491H26.4418ZM37.1292 359.247C37.1292 360.244 36.4175 360.739 35.7357 360.739C34.9942 360.739 34.4999 360.214 34.4999 359.384V355.455H32.9573V359.622C32.9573 361.195 33.8522 362.085 35.1391 362.085C36.1192 362.085 36.8096 361.57 37.1079 360.837H37.1761V362H38.6718V355.455H37.1292V359.247ZM40.6863 362H42.2033V360.969H42.2928C42.5357 361.446 43.0428 362.115 44.1678 362.115C45.7104 362.115 46.8652 360.892 46.8652 358.736C46.8652 356.554 45.6763 355.369 44.1635 355.369C43.0087 355.369 42.5272 356.064 42.2928 356.537H42.2289V353.273H40.6863V362ZM42.199 358.727C42.199 357.457 42.7445 356.635 43.7374 356.635C44.7644 356.635 45.2928 357.509 45.2928 358.727C45.2928 359.955 44.7559 360.849 43.7374 360.849C42.753 360.849 42.199 359.997 42.199 358.727ZM49.2728 364.442C50.4745 364.442 51.1691 363.82 51.5399 362.793L54.1691 355.463L52.52 355.455L51.0072 360.398H50.939L49.4305 355.455H47.7941L50.1677 362.136L50.0356 362.49C49.7416 363.214 49.2984 363.27 48.6251 363.078L48.2671 364.276C48.476 364.365 48.851 364.442 49.2728 364.442ZM61.7915 362.128C63.7091 362.128 64.9278 360.777 64.9278 358.753C64.9278 356.724 63.7091 355.369 61.7915 355.369C59.8739 355.369 58.6551 356.724 58.6551 358.753C58.6551 360.777 59.8739 362.128 61.7915 362.128ZM61.8 360.892C60.7389 360.892 60.219 359.946 60.219 358.749C60.219 357.551 60.7389 356.592 61.8 356.592C62.844 356.592 63.3639 357.551 63.3639 358.749C63.3639 359.946 62.844 360.892 61.8 360.892ZM68.1398 358.165C68.1398 357.219 68.7108 356.673 69.5247 356.673C70.3216 356.673 70.7988 357.197 70.7988 358.071V362H72.3415V357.832C72.3457 356.264 71.4508 355.369 70.1 355.369C69.1199 355.369 68.4466 355.838 68.1483 356.567H68.0716V355.455H66.5971V362H68.1398V358.165ZM77.6062 362H79.1488V358.152C79.1488 357.321 79.7752 356.733 80.6233 356.733C80.8832 356.733 81.2071 356.78 81.3392 356.822V355.403C81.1985 355.378 80.9556 355.361 80.7852 355.361C80.0352 355.361 79.4088 355.787 79.1701 356.545H79.1019V355.455H77.6062V362ZM84.4786 362.132C85.5056 362.132 86.1193 361.651 86.4005 361.101H86.4516V362H87.9346V357.619C87.9346 355.889 86.5241 355.369 85.2755 355.369C83.8991 355.369 82.8423 355.983 82.5014 357.176L83.9417 357.381C84.0951 356.933 84.5298 356.55 85.284 356.55C85.9999 356.55 86.392 356.916 86.392 357.56V357.585C86.392 358.028 85.9275 358.05 84.7727 358.173C83.5028 358.31 82.2883 358.689 82.2883 360.163C82.2883 361.45 83.2301 362.132 84.4786 362.132ZM84.8792 360.999C84.2357 360.999 83.7755 360.705 83.7755 360.138C83.7755 359.545 84.2911 359.298 84.9815 359.2C85.3863 359.145 86.196 359.043 86.3963 358.881V359.652C86.3963 360.381 85.8082 360.999 84.8792 360.999ZM89.8457 362H91.3884V355.455H89.8457V362ZM90.6213 354.526C91.1114 354.526 91.5119 354.151 91.5119 353.69C91.5119 353.226 91.1114 352.851 90.6213 352.851C90.127 352.851 89.7264 353.226 89.7264 353.69C89.7264 354.151 90.127 354.526 90.6213 354.526ZM94.8773 353.273H93.3346V362H94.8773V353.273ZM101.997 357.185C101.784 356.077 100.897 355.369 99.3633 355.369C97.7866 355.369 96.7128 356.145 96.717 357.355C96.7128 358.31 97.3008 358.94 98.5579 359.2L99.6744 359.435C100.275 359.567 100.557 359.81 100.557 360.18C100.557 360.628 100.071 360.964 99.3378 360.964C98.6304 360.964 98.1701 360.658 98.038 360.07L96.5338 360.214C96.7255 361.416 97.7355 362.128 99.342 362.128C100.978 362.128 102.133 361.28 102.137 360.04C102.133 359.107 101.532 358.536 100.297 358.267L99.1801 358.028C98.5153 357.879 98.2511 357.649 98.2554 357.27C98.2511 356.827 98.7412 356.52 99.3846 356.52C100.096 356.52 100.471 356.908 100.591 357.338L101.997 357.185Z" fill="#3A4A42"/>
<rect x="123" y="342" width="45" height="32" rx="4" fill="#EBF0EE"/>
<path d="M138.648 362.128C140.293 362.128 141.341 361.152 141.452 359.763H139.977C139.845 360.466 139.338 360.871 138.661 360.871C137.697 360.871 137.075 360.065 137.075 358.727C137.075 357.406 137.71 356.614 138.661 356.614C139.402 356.614 139.858 357.091 139.977 357.722H141.452C141.345 356.303 140.237 355.369 138.639 355.369C136.722 355.369 135.511 356.754 135.511 358.753C135.511 360.734 136.692 362.128 138.648 362.128ZM148.252 357.185C148.039 356.077 147.152 355.369 145.618 355.369C144.041 355.369 142.968 356.145 142.972 357.355C142.968 358.31 143.556 358.94 144.813 359.2L145.929 359.435C146.53 359.567 146.811 359.81 146.811 360.18C146.811 360.628 146.326 360.964 145.593 360.964C144.885 360.964 144.425 360.658 144.293 360.07L142.789 360.214C142.98 361.416 143.99 362.128 145.597 362.128C147.233 362.128 148.388 361.28 148.392 360.04C148.388 359.107 147.787 358.536 146.551 358.267L145.435 358.028C144.77 357.879 144.506 357.649 144.51 357.27C144.506 356.827 144.996 356.52 145.639 356.52C146.351 356.52 146.726 356.908 146.845 357.338L148.252 357.185ZM155.198 357.185C154.985 356.077 154.098 355.369 152.564 355.369C150.987 355.369 149.914 356.145 149.918 357.355C149.914 358.31 150.502 358.94 151.759 359.2L152.875 359.435C153.476 359.567 153.757 359.81 153.757 360.18C153.757 360.628 153.271 360.964 152.539 360.964C151.831 360.964 151.371 360.658 151.239 360.07L149.735 360.214C149.926 361.416 150.936 362.128 152.543 362.128C154.179 362.128 155.334 361.28 155.338 360.04C155.334 359.107 154.733 358.536 153.497 358.267L152.381 358.028C151.716 357.879 151.452 357.649 151.456 357.27C151.452 356.827 151.942 356.52 152.585 356.52C153.297 356.52 153.672 356.908 153.791 357.338L155.198 357.185Z" fill="#3A4A42"/>
<rect x="176" y="342" width="82" height="32" rx="4" fill="#EBF0EE"/>
<path d="M192.304 353.273V359.409C192.3 360.33 191.874 360.82 191.115 360.82C190.408 360.82 189.935 360.389 189.922 359.682H188.349C188.349 361.293 189.526 362.119 191.055 362.119C192.739 362.119 193.868 361.097 193.872 359.409V353.273H192.304ZM197.763 362.132C198.79 362.132 199.403 361.651 199.685 361.101H199.736V362H201.219V357.619C201.219 355.889 199.808 355.369 198.56 355.369C197.183 355.369 196.126 355.983 195.785 357.176L197.226 357.381C197.379 356.933 197.814 356.55 198.568 356.55C199.284 356.55 199.676 356.916 199.676 357.56V357.585C199.676 358.028 199.212 358.05 198.057 358.173C196.787 358.31 195.572 358.689 195.572 360.163C195.572 361.45 196.514 362.132 197.763 362.132ZM198.163 360.999C197.52 360.999 197.06 360.705 197.06 360.138C197.06 359.545 197.575 359.298 198.266 359.2C198.67 359.145 199.48 359.043 199.68 358.881V359.652C199.68 360.381 199.092 360.999 198.163 360.999ZM208.742 355.455H207.101L205.593 360.317H205.525L204.02 355.455H202.376L204.707 362H206.411L208.742 355.455ZM214.981 355.672H216.502C216.472 354.197 215.215 353.153 213.357 353.153C211.525 353.153 210.148 354.185 210.152 355.727C210.152 356.98 211.043 357.7 212.479 358.071L213.472 358.327C214.414 358.565 215.036 358.859 215.04 359.537C215.036 360.283 214.329 360.781 213.297 360.781C212.309 360.781 211.542 360.338 211.478 359.422H209.922C209.986 361.156 211.277 362.132 213.31 362.132C215.402 362.132 216.617 361.088 216.621 359.55C216.617 358.037 215.368 357.347 214.056 357.036L213.238 356.831C212.522 356.661 211.746 356.358 211.755 355.629C211.759 354.973 212.347 354.491 213.336 354.491C214.277 354.491 214.9 354.93 214.981 355.672ZM221.178 362.128C222.822 362.128 223.871 361.152 223.982 359.763H222.507C222.375 360.466 221.868 360.871 221.19 360.871C220.227 360.871 219.605 360.065 219.605 358.727C219.605 357.406 220.24 356.614 221.19 356.614C221.932 356.614 222.388 357.091 222.507 357.722H223.982C223.875 356.303 222.767 355.369 221.169 355.369C219.251 355.369 218.041 356.754 218.041 358.753C218.041 360.734 219.222 362.128 221.178 362.128ZM225.608 362H227.151V358.152C227.151 357.321 227.777 356.733 228.625 356.733C228.885 356.733 229.209 356.78 229.341 356.822V355.403C229.201 355.378 228.958 355.361 228.787 355.361C228.037 355.361 227.411 355.787 227.172 356.545H227.104V355.455H225.608V362ZM230.726 362H232.269V355.455H230.726V362ZM231.502 354.526C231.992 354.526 232.392 354.151 232.392 353.69C232.392 353.226 231.992 352.851 231.502 352.851C231.007 352.851 230.607 353.226 230.607 353.69C230.607 354.151 231.007 354.526 231.502 354.526ZM234.215 364.455H235.758V360.969H235.821C236.064 361.446 236.571 362.115 237.696 362.115C239.239 362.115 240.394 360.892 240.394 358.736C240.394 356.554 239.205 355.369 237.692 355.369C236.537 355.369 236.056 356.064 235.821 356.537H235.732V355.455H234.215V364.455ZM235.728 358.727C235.728 357.457 236.273 356.635 237.266 356.635C238.293 356.635 238.821 357.509 238.821 358.727C238.821 359.955 238.285 360.849 237.266 360.849C236.282 360.849 235.728 359.997 235.728 358.727ZM245.343 355.455H244.052V353.886H242.51V355.455H241.581V356.648H242.51V360.287C242.501 361.518 243.396 362.124 244.555 362.089C244.994 362.077 245.297 361.991 245.463 361.936L245.203 360.73C245.118 360.751 244.943 360.79 244.751 360.79C244.363 360.79 244.052 360.653 244.052 360.031V356.648H245.343V355.455Z" fill="#3A4A42"/>
<rect x="266" y="342" width="51" height="32" rx="4" fill="#EBF0EE"/>
<path d="M280.335 358.165C280.335 357.219 280.923 356.673 281.75 356.673C282.56 356.673 283.037 357.189 283.037 358.071V362H284.58V357.832C284.58 356.251 283.685 355.369 282.325 355.369C281.32 355.369 280.68 355.825 280.378 356.567H280.301V353.273H278.793V362H280.335V358.165ZM289.78 355.455H288.489V353.886H286.947V355.455H286.018V356.648H286.947V360.287C286.938 361.518 287.833 362.124 288.992 362.089C289.431 362.077 289.734 361.991 289.9 361.936L289.64 360.73C289.555 360.751 289.38 360.79 289.188 360.79C288.8 360.79 288.489 360.653 288.489 360.031V356.648H289.78V355.455ZM291.431 362H292.973V358.02C292.973 357.214 293.51 356.669 294.175 356.669C294.827 356.669 295.274 357.108 295.274 357.781V362H296.787V357.918C296.787 357.18 297.226 356.669 297.972 356.669C298.594 356.669 299.088 357.036 299.088 357.845V362H300.635V357.607C300.635 356.145 299.791 355.369 298.59 355.369C297.639 355.369 296.915 355.838 296.625 356.567H296.557C296.306 355.825 295.671 355.369 294.789 355.369C293.911 355.369 293.254 355.821 292.982 356.567H292.905V355.455H291.431V362ZM304.103 353.273H302.56V362H304.103V353.273Z" fill="#3A4A42"/>
<rect x="104" y="403" width="122" height="48" rx="4" fill="#36B37F"/>
<path d="M124.109 423.884H125.908C125.853 421.904 124.103 420.467 121.591 420.467C119.11 420.467 117.208 421.886 117.208 424.017C117.208 425.738 118.44 426.746 120.426 427.283L121.887 427.681C123.209 428.032 124.229 428.466 124.229 429.565C124.229 430.772 123.076 431.569 121.489 431.569C120.052 431.569 118.857 430.929 118.748 429.583H116.876C116.997 431.823 118.73 433.205 121.501 433.205C124.405 433.205 126.077 431.678 126.077 429.583C126.077 427.355 124.091 426.492 122.521 426.106L121.314 425.792C120.348 425.544 119.062 425.092 119.068 423.908C119.068 422.858 120.028 422.079 121.549 422.079C122.968 422.079 123.976 422.743 124.109 423.884ZM132.667 433.187C134.69 433.187 136.121 432.191 136.531 430.682L134.823 430.374C134.497 431.249 133.712 431.696 132.686 431.696C131.14 431.696 130.102 430.694 130.053 428.907H136.646V428.267C136.646 424.917 134.642 423.607 132.541 423.607C129.957 423.607 128.254 425.575 128.254 428.424C128.254 431.304 129.933 433.187 132.667 433.187ZM130.059 427.555C130.132 426.239 131.086 425.098 132.553 425.098C133.953 425.098 134.871 426.136 134.877 427.555H130.059ZM143.155 433.187C145.177 433.187 146.608 432.191 147.019 430.682L145.31 430.374C144.984 431.249 144.199 431.696 143.173 431.696C141.628 431.696 140.589 430.694 140.541 428.907H147.133V428.267C147.133 424.917 145.129 423.607 143.028 423.607C140.444 423.607 138.742 425.575 138.742 428.424C138.742 431.304 140.42 433.187 143.155 433.187ZM140.547 427.555C140.619 426.239 141.573 425.098 143.04 425.098C144.441 425.098 145.358 426.136 145.364 427.555H140.547ZM154.8 433H156.665V428.653H159.201C162.068 428.653 163.487 426.921 163.487 424.639C163.487 422.363 162.081 420.636 159.207 420.636H154.8V433ZM156.665 427.072V422.236H159.008C160.855 422.236 161.61 423.238 161.61 424.639C161.61 426.039 160.855 427.072 159.032 427.072H156.665ZM166.039 433H167.844V427.337C167.844 426.124 168.78 425.249 170.06 425.249C170.434 425.249 170.857 425.315 171.001 425.357V423.631C170.82 423.607 170.464 423.588 170.235 423.588C169.148 423.588 168.218 424.204 167.88 425.2H167.784V423.727H166.039V433ZM176.647 433.187C179.261 433.187 180.97 431.273 180.97 428.406C180.97 425.52 179.261 423.607 176.647 423.607C174.033 423.607 172.325 425.52 172.325 428.406C172.325 431.273 174.033 433.187 176.647 433.187ZM176.653 431.672C174.945 431.672 174.148 430.181 174.148 428.4C174.148 426.625 174.945 425.116 176.653 425.116C178.35 425.116 179.147 426.625 179.147 428.4C179.147 430.181 178.35 431.672 176.653 431.672ZM183.495 423.727V433.58C183.495 434.443 183.138 434.914 182.281 434.914C182.179 434.914 182.1 434.914 181.991 434.908V436.465H182.342C184.279 436.489 185.3 435.451 185.3 433.592V423.727H183.495ZM184.388 422.297C185.01 422.297 185.529 421.814 185.529 421.222C185.529 420.63 185.01 420.141 184.388 420.141C183.76 420.141 183.247 420.63 183.247 421.222C183.247 421.814 183.76 422.297 184.388 422.297ZM192.234 433.187C194.257 433.187 195.688 432.191 196.098 430.682L194.39 430.374C194.064 431.249 193.279 431.696 192.253 431.696C190.707 431.696 189.669 430.694 189.621 428.907H196.213V428.267C196.213 424.917 194.209 423.607 192.108 423.607C189.524 423.607 187.822 425.575 187.822 428.424C187.822 431.304 189.5 433.187 192.234 433.187ZM189.627 427.555C189.699 426.239 190.653 425.098 192.12 425.098C193.52 425.098 194.438 426.136 194.444 427.555H189.627ZM202.631 433.187C204.823 433.187 206.242 431.871 206.441 430.066H204.684C204.455 431.068 203.676 431.66 202.644 431.66C201.116 431.66 200.132 430.386 200.132 428.364C200.132 426.377 201.134 425.128 202.644 425.128C203.791 425.128 204.491 425.852 204.684 426.722H206.441C206.248 424.85 204.72 423.607 202.613 423.607C199.999 423.607 198.309 425.575 198.309 428.406C198.309 431.201 199.939 433.187 202.631 433.187ZM213.21 423.727H211.308V421.506H209.503V423.727H208.145V425.176H209.503V430.652C209.497 432.336 210.783 433.151 212.207 433.121C212.781 433.115 213.167 433.006 213.379 432.928L213.053 431.436C212.932 431.461 212.709 431.515 212.419 431.515C211.833 431.515 211.308 431.322 211.308 430.277V425.176H213.21V423.727Z" fill="white"/>
</svg>
