<svg width="204" height="83" viewBox="0 0 204 83" fill="none" xmlns="http://www.w3.org/2000/svg">
<path d="M0.571378 0.90909V30H6.53729V10.9943H6.77876L14.3072 29.858H18.3697L25.8981 11.0653H26.1396V30H32.1055V0.90909H24.5202L16.5089 20.4545H16.168L8.15661 0.90909H0.571378ZM40.7951 38.1392C45.2979 38.1392 47.6985 35.8523 48.9201 32.358L57.4002 8.21023L50.994 8.18182L46.4343 24.2045H46.207L41.69 8.18182H35.3263L43.1531 30.625L42.7979 31.5483C41.9457 33.5227 40.4826 33.6648 38.3519 32.9972L36.9883 37.5284C37.8548 37.8835 39.261 38.1392 40.7951 38.1392ZM69.8683 30H76.0188V19.6875H80.5075L86.0188 30H92.8086L86.6296 18.6932C89.9393 17.2727 91.7717 14.3892 91.7717 10.4119C91.7717 4.63068 87.9506 0.90909 81.3455 0.90909H69.8683V30ZM76.0188 14.7443V5.9375H80.1665C83.7177 5.9375 85.4364 7.5142 85.4364 10.4119C85.4364 13.2955 83.7177 14.7443 80.195 14.7443H76.0188ZM105.596 30.4261C110.994 30.4261 114.63 27.7983 115.483 23.75L109.886 23.3807C109.275 25.0426 107.713 25.9091 105.696 25.9091C102.67 25.9091 100.752 23.9062 100.752 20.6534V20.6392H115.61V18.9773C115.61 11.5625 111.122 7.89773 105.355 7.89773C98.9343 7.89773 94.7724 12.4574 94.7724 19.1903C94.7724 26.108 98.8775 30.4261 105.596 30.4261ZM100.752 16.8892C100.88 14.4034 102.77 12.4148 105.454 12.4148C108.082 12.4148 109.9 14.2898 109.914 16.8892H100.752ZM129.417 30.4261C135.227 30.4261 138.877 27.017 139.162 22.0028H133.451C133.096 24.3324 131.562 25.6392 129.488 25.6392C126.662 25.6392 124.829 23.267 124.829 19.0909C124.829 14.9716 126.676 12.6136 129.488 12.6136C131.704 12.6136 133.125 14.0767 133.451 16.25H139.162C138.906 11.2074 135.085 7.89773 129.389 7.89773C122.77 7.89773 118.679 12.4858 118.679 19.1761C118.679 25.8097 122.699 30.4261 129.417 30.4261ZM152.979 30.4261C158.377 30.4261 162.013 27.7983 162.865 23.75L157.269 23.3807C156.658 25.0426 155.096 25.9091 153.078 25.9091C150.053 25.9091 148.135 23.9062 148.135 20.6534V20.6392H162.993V18.9773C162.993 11.5625 158.505 7.89773 152.738 7.89773C146.317 7.89773 142.155 12.4574 142.155 19.1903C142.155 26.108 146.26 30.4261 152.979 30.4261ZM148.135 16.8892C148.263 14.4034 150.152 12.4148 152.837 12.4148C155.465 12.4148 157.283 14.2898 157.297 16.8892H148.135ZM172.993 17.3864C173.007 14.5739 174.684 12.9261 177.127 12.9261C179.556 12.9261 181.019 14.517 181.005 17.1875V30H187.056V16.108C187.056 11.0227 184.073 7.89773 179.527 7.89773C176.289 7.89773 173.945 9.48864 172.965 12.0312H172.709V8.18182H166.942V30H172.993V17.3864ZM203.43 8.18182H199.325V2.95455H193.274V8.18182H190.291V12.7273H193.274V24.0909C193.245 28.3665 196.157 30.483 200.547 30.2983C202.109 30.2415 203.217 29.929 203.828 29.7301L202.876 25.2273C202.578 25.2841 201.939 25.4261 201.37 25.4261C200.163 25.4261 199.325 24.9716 199.325 23.2955V12.7273H203.43V8.18182ZM47.7056 82H53.6999L59.2255 62.9801H59.4528L64.9925 82H70.9869L79.3107 52.9091H72.592L67.7766 73.1648H67.521L62.2227 52.9091H56.4698L51.1573 73.1222H50.9158L46.1005 52.9091H39.3817L47.7056 82ZM90.0032 82.4261C96.6225 82.4261 100.742 77.8949 100.742 71.1761C100.742 64.4148 96.6225 59.8977 90.0032 59.8977C83.3839 59.8977 79.2646 64.4148 79.2646 71.1761C79.2646 77.8949 83.3839 82.4261 90.0032 82.4261ZM90.0316 77.7386C86.9776 77.7386 85.4151 74.9403 85.4151 71.1335C85.4151 67.3267 86.9776 64.5142 90.0316 64.5142C93.0288 64.5142 94.5913 67.3267 94.5913 71.1335C94.5913 74.9403 93.0288 77.7386 90.0316 77.7386ZM104.676 82H110.728V69.6562C110.728 66.9716 112.688 65.125 115.358 65.125C116.196 65.125 117.347 65.267 117.915 65.4517V60.0824C117.375 59.9545 116.623 59.8693 116.012 59.8693C113.569 59.8693 111.566 61.2898 110.77 63.9886H110.543V60.1818H104.676V82ZM121.044 82H127.095V75.0682L128.728 73.2074L134.68 82H141.768L133.26 69.6278L141.356 60.1818H134.41L127.422 68.4631H127.095V52.9091H121.044V82ZM162.478 66.4034C161.939 62.3835 158.7 59.8977 153.189 59.8977C147.606 59.8977 143.927 62.483 143.941 66.6875C143.927 69.9545 145.987 72.071 150.248 72.9233L154.027 73.6761C155.93 74.0597 156.797 74.7557 156.825 75.8494C156.797 77.142 155.39 78.0653 153.274 78.0653C151.115 78.0653 149.68 77.142 149.311 75.3665L143.359 75.679C143.927 79.8551 147.478 82.4261 153.26 82.4261C158.913 82.4261 162.961 79.5426 162.975 75.2386C162.961 72.0852 160.902 70.196 156.669 69.3295L152.72 68.5341C150.689 68.0938 149.936 67.3977 149.95 66.3466C149.936 65.0398 151.413 64.1875 153.288 64.1875C155.39 64.1875 156.64 65.3381 156.939 66.7443L162.478 66.4034Z" fill="#172B4D"/>
</svg>
