<svg width="18" height="12" viewBox="0 0 18 12" fill="none" xmlns="http://www.w3.org/2000/svg">
<path fill-rule="evenodd" clip-rule="evenodd" d="M16.6665 0.666992H15.6665C15.1142 0.666992 14.6665 1.11471 14.6665 1.66699V10.3337C14.6665 10.8859 15.1142 11.3337 15.6665 11.3337H16.6665C17.2188 11.3337 17.6665 10.8859 17.6665 10.3337V1.66699C17.6665 1.11471 17.2188 0.666992 16.6665 0.666992ZM10.9998 3.00033H11.9998C12.5521 3.00033 12.9998 3.44804 12.9998 4.00033V10.3337C12.9998 10.8859 12.5521 11.3337 11.9998 11.3337H10.9998C10.4476 11.3337 9.99984 10.8859 9.99984 10.3337V4.00033C9.99984 3.44804 10.4476 3.00033 10.9998 3.00033ZM7.33317 5.33366H6.33317C5.78089 5.33366 5.33317 5.78137 5.33317 6.33366V10.3337C5.33317 10.8859 5.78089 11.3337 6.33317 11.3337H7.33317C7.88546 11.3337 8.33317 10.8859 8.33317 10.3337V6.33366C8.33317 5.78137 7.88546 5.33366 7.33317 5.33366ZM2.6665 7.33366H1.6665C1.11422 7.33366 0.666504 7.78137 0.666504 8.33366V10.3337C0.666504 10.8859 1.11422 11.3337 1.6665 11.3337H2.6665C3.21879 11.3337 3.6665 10.8859 3.6665 10.3337V8.33366C3.6665 7.78137 3.21879 7.33366 2.6665 7.33366Z" fill="black"/>
</svg>
