<svg width="40" height="40" viewBox="0 0 40 40" fill="none" xmlns="http://www.w3.org/2000/svg">
<path fill-rule="evenodd" clip-rule="evenodd" d="M11.0001 15C11.0001 14.4477 11.4478 14 12.0001 14H28.0001C28.5524 14 29.0001 14.4477 29.0001 15C29.0001 15.5523 28.5524 16 28.0001 16H12.0001C11.4478 16 11.0001 15.5523 11.0001 15ZM11.0001 20C11.0001 19.4477 11.4478 19 12.0001 19L28.0001 19C28.5524 19 29.0001 19.4477 29.0001 20C29.0001 20.5523 28.5524 21 28.0001 21L12.0001 21C11.4478 21 11.0001 20.5523 11.0001 20ZM12.0001 24C11.4478 24 11.0001 24.4477 11.0001 25C11.0001 25.5523 11.4478 26 12.0001 26H28.0001C28.5524 26 29.0001 25.5523 29.0001 25C29.0001 24.4477 28.5524 24 28.0001 24H12.0001Z" fill="#28352F"/>
</svg>
